{
    "asset" : {
        "generator" : "Khronos glTF Blender I/O v1.0.5",
        "version" : "2.0"
    },
    "scene" : 0,
    "scenes" : [
        {
            "name" : "Scene",
            "nodes" : [
                0,
                1,
                2,
                3
            ]
        }
    ],
    "nodes" : [
        {
            "name" : "Light",
            "rotation" : [
                0.16907575726509094,
                0.7558803558349609,
                -0.27217137813568115,
                0.570947527885437
            ],
            "translation" : [
                4.076245307922363,
                5.903861999511719,
                4.163806915283203
            ]
        },
        {
            "name" : "Camera",
            "rotation" : [
                0.483536034822464,
                0.33687159419059753,
                -0.20870360732078552,
                0.7804827094078064
            ],
            "translation" : [
                7.358891487121582,
                4.958309173583984,
                12.095051765441895
            ]
        },
        {
            "mesh" : 0,
            "name" : "Cube",
            "scale" : [
                0.14261968433856964,
                0.14261968433856964,
                2.6771297454833984
            ],
            "translation" : [
                0.011964797973632812,
                0.34853124618530273,
                8.102752685546875
            ]
        },
        {
            "name" : "BezierCircle",
            "scale" : [
                4.80797815322876,
                4.80797815322876,
                4.80797815322876
            ],
            "translation" : [
                0.002101292833685875,
                0.019935667514801025,
                -0.05072122812271118
            ]
        }
    ],
    "animations" : [
        {
            "channels" : [
                {
                    "sampler" : 0,
                    "target" : {
                        "node" : 2,
                        "path" : "translation"
                    }
                },
                {
                    "sampler" : 1,
                    "target" : {
                        "node" : 2,
                        "path" : "rotation"
                    }
                },
                {
                    "sampler" : 2,
                    "target" : {
                        "node" : 2,
                        "path" : "scale"
                    }
                }
            ],
            "name" : "CubeAction.001",
            "samplers" : [
                {
                    "input" : 4,
                    "interpolation" : "LINEAR",
                    "output" : 5
                },
                {
                    "input" : 4,
                    "interpolation" : "LINEAR",
                    "output" : 6
                },
                {
                    "input" : 4,
                    "interpolation" : "LINEAR",
                    "output" : 7
                }
            ]
        }
    ],
    "meshes" : [
        {
            "name" : "Cube.001",
            "primitives" : [
                {
                    "attributes" : {
                        "POSITION" : 0,
                        "NORMAL" : 1,
                        "TEXCOORD_0" : 2
                    },
                    "indices" : 3
                }
            ]
        }
    ],
    "accessors" : [
        {
            "bufferView" : 0,
            "componentType" : 5126,
            "count" : 2080,
            "max" : [
                1.9916441440582275,
                1.9916439056396484,
                -0.003613293170928955
            ],
            "min" : [
                -1.9916441440582275,
                -1.9916443824768066,
                -1.9935827255249023
            ],
            "type" : "VEC3"
        },
        {
            "bufferView" : 1,
            "componentType" : 5126,
            "count" : 2080,
            "type" : "VEC3"
        },
        {
            "bufferView" : 2,
            "componentType" : 5126,
            "count" : 2080,
            "type" : "VEC2"
        },
        {
            "bufferView" : 3,
            "componentType" : 5123,
            "count" : 3120,
            "type" : "SCALAR"
        },
        {
            "bufferView" : 4,
            "componentType" : 5126,
            "count" : 120,
            "max" : [
                5
            ],
            "min" : [
                0.041666666666666664
            ],
            "type" : "SCALAR"
        },
        {
            "bufferView" : 5,
            "componentType" : 5126,
            "count" : 120,
            "type" : "VEC3"
        },
        {
            "bufferView" : 6,
            "componentType" : 5126,
            "count" : 120,
            "type" : "VEC4"
        },
        {
            "bufferView" : 7,
            "componentType" : 5126,
            "count" : 120,
            "type" : "VEC3"
        }
    ],
    "bufferViews" : [
        {
            "buffer" : 0,
            "byteLength" : 24960,
            "byteOffset" : 0
        },
        {
            "buffer" : 0,
            "byteLength" : 24960,
            "byteOffset" : 24960
        },
        {
            "buffer" : 0,
            "byteLength" : 16640,
            "byteOffset" : 49920
        },
        {
            "buffer" : 0,
            "byteLength" : 6240,
            "byteOffset" : 66560
        },
        {
            "buffer" : 0,
            "byteLength" : 480,
            "byteOffset" : 72800
        },
        {
            "buffer" : 0,
            "byteLength" : 1440,
            "byteOffset" : 73280
        },
        {
            "buffer" : 0,
            "byteLength" : 1920,
            "byteOffset" : 74720
        },
        {
            "buffer" : 0,
            "byteLength" : 1440,
            "byteOffset" : 76640
        }
    ],
    "buffers" : [
        {
            "byteLength" : 78080,
            "uri" : "scene.bin"
        }
    ]
}
