{
  "accessors": [
    {
      "bufferView": 1,
      "componentType": 5126,
      "count": 5405,
      "max": [
        1.3200000524520874,
        1.742400050163269,
        87.634002685546875
      ],
      "min": [
        -1.3844000101089478,
        -1.742400050163269,
        -3.943850040435791
      ],
      "type": "VEC3"
    },
    {
      "bufferView": 1,
      "byteOffset": 64860,
      "componentType": 5126,
      "count": 5405,
      "max": [
        0.99975180625915527,
        0.99999094009399414,
        0.86781525611877441
      ],
      "min": [
        -1,
        -0.99999094009399414,
        -0.68934130668640137
      ],
      "type": "VEC3"
    },
    {
      "bufferView": 0,
      "componentType": 5125,
      "count": 11886,
      "max": [
        5404
      ],
      "min": [
        0
      ],
      "type": "SCALAR"
    },
    {
      "bufferView": 1,
      "byteOffset": 129720,
      "componentType": 5126,
      "count": 1736,
      "max": [
        9.9999997473787516e-06,
        1.3079999685287476,
        86.0406494140625
      ],
      "min": [
        -1.3200000524520874,
        -1.3079999685287476,
        1.5933400392532349
      ],
      "type": "VEC3"
    },
    {
      "bufferView": 1,
      "byteOffset": 150552,
      "componentType": 5126,
      "count": 1736,
      "max": [
        0.99516212940216064,
        0.99516212940216064,
        0.011360024102032185
      ],
      "min": [
        0.097989767789840698,
        -0.99516212940216064,
        -0.023600112646818161
      ],
      "type": "VEC3"
    },
    {
      "bufferView": 0,
      "byteOffset": 47544,
      "componentType": 5125,
      "count": 3240,
      "max": [
        1735
      ],
      "min": [
        0
      ],
      "type": "SCALAR"
    },
    {
      "bufferView": 1,
      "byteOffset": 171384,
      "componentType": 5126,
      "count": 2464,
      "max": [
        0.49897000193595886,
        0.4989599883556366,
        90.860572814941406
      ],
      "min": [
        -0.49895000457763672,
        -0.4989599883556366,
        87.634002685546875
      ],
      "type": "VEC3"
    },
    {
      "bufferView": 1,
      "byteOffset": 200952,
      "componentType": 5126,
      "count": 2464,
      "max": [
        0.98595470190048218,
        0.98595470190048218,
        0.42699164152145386
      ],
      "min": [
        -0.98595470190048218,
        -0.98595470190048218,
        -1
      ],
      "type": "VEC3"
    },
    {
      "bufferView": 0,
      "byteOffset": 60504,
      "componentType": 5125,
      "count": 3738,
      "max": [
        2463
      ],
      "min": [
        0
      ],
      "type": "SCALAR"
    },
    {
      "bufferView": 1,
      "byteOffset": 230520,
      "componentType": 5126,
      "count": 640,
      "max": [
        1.127079963684082,
        1,
        1
      ],
      "min": [
        -1,
        -1,
        -3.6271400451660156
      ],
      "type": "VEC3"
    },
    {
      "bufferView": 1,
      "byteOffset": 238200,
      "componentType": 5126,
      "count": 640,
      "max": [
        0.99518442153930664,
        0.99518442153930664,
        1
      ],
      "min": [
        -0.99518442153930664,
        -0.99518442153930664,
        -0.65984910726547241
      ],
      "type": "VEC3"
    },
    {
      "bufferView": 0,
      "byteOffset": 75456,
      "componentType": 5125,
      "count": 954,
      "max": [
        639
      ],
      "min": [
        0
      ],
      "type": "SCALAR"
    },
    {
      "bufferView": 1,
      "byteOffset": 245880,
      "componentType": 5126,
      "count": 240,
      "max": [
        0.95105999708175659,
        1,
        1
      ],
      "min": [
        -0.95105999708175659,
        -1,
        -1
      ],
      "type": "VEC3"
    },
    {
      "bufferView": 1,
      "byteOffset": 248760,
      "componentType": 5126,
      "count": 240,
      "max": [
        0.99207723140716553,
        0.94352102279663086,
        0.94352495670318604
      ],
      "min": [
        -0.99207723140716553,
        -0.94352102279663086,
        -0.94352495670318604
      ],
      "type": "VEC3"
    },
    {
      "bufferView": 0,
      "byteOffset": 79272,
      "componentType": 5125,
      "count": 240,
      "max": [
        239
      ],
      "min": [
        0
      ],
      "type": "SCALAR"
    },
    {
      "bufferView": 1,
      "byteOffset": 251640,
      "componentType": 5126,
      "count": 240,
      "max": [
        0.95105999708175659,
        1,
        1
      ],
      "min": [
        -0.95105999708175659,
        -1,
        -1
      ],
      "type": "VEC3"
    },
    {
      "bufferView": 1,
      "byteOffset": 254520,
      "componentType": 5126,
      "count": 240,
      "max": [
        0.99207723140716553,
        0.94352102279663086,
        0.94352495670318604
      ],
      "min": [
        -0.99207723140716553,
        -0.94352102279663086,
        -0.94352495670318604
      ],
      "type": "VEC3"
    },
    {
      "bufferView": 0,
      "byteOffset": 80232,
      "componentType": 5125,
      "count": 240,
      "max": [
        239
      ],
      "min": [
        0
      ],
      "type": "SCALAR"
    },
    {
      "bufferView": 1,
      "byteOffset": 257400,
      "componentType": 5126,
      "count": 640,
      "max": [
        1.127079963684082,
        1,
        1
      ],
      "min": [
        -1,
        -1,
        -3.6271400451660156
      ],
      "type": "VEC3"
    },
    {
      "bufferView": 1,
      "byteOffset": 265080,
      "componentType": 5126,
      "count": 640,
      "max": [
        0.99518442153930664,
        0.99518442153930664,
        1
      ],
      "min": [
        -0.99518442153930664,
        -0.99518442153930664,
        -0.65984910726547241
      ],
      "type": "VEC3"
    },
    {
      "bufferView": 0,
      "byteOffset": 81192,
      "componentType": 5125,
      "count": 954,
      "max": [
        639
      ],
      "min": [
        0
      ],
      "type": "SCALAR"
    }
  ],
  "asset": {
    "extras": {
      "author": "Zafflex (https://sketchfab.com/Zafflex)",
      "license": "CC-BY-4.0 (http://creativecommons.org/licenses/by/4.0/)",
      "source": "https://sketchfab.com/models/19009f0c8a6649bfa819e966db48acab",
      "title": "Low-poly Rattlesnake"
    },
    "generator": "Sketchfab-4.15.0",
    "version": "2.0"
  },
  "bufferViews": [
    {
      "buffer": 0,
      "byteLength": 85008,
      "byteOffset": 0,
      "name": "floatBufferViews",
      "target": 34963
    },
    {
      "buffer": 0,
      "byteLength": 272760,
      "byteOffset": 85008,
      "byteStride": 12,
      "name": "floatBufferViews",
      "target": 34962
    }
  ],
  "buffers": [
    {
      "byteLength": 357768,
      "uri": "scene.bin"
    }
  ],
  "materials": [
    {
      "doubleSided": true,
      "emissiveFactor": [
        0,
        0,
        0
      ],
      "name": "Snake",
      "pbrMetallicRoughness": {
        "baseColorFactor": [
          0.80000007149999997,
          0.49906218050000001,
          0.1214900538,
          1
        ],
        "metallicFactor": 0,
        "roughnessFactor": 0.59999999999999998
      }
    },
    {
      "doubleSided": true,
      "emissiveFactor": [
        0,
        0,
        0
      ],
      "name": "Snake_addictionals",
      "pbrMetallicRoughness": {
        "baseColorFactor": [
          0.15704043209999999,
          0.16262805459999999,
          0.042295526700000002,
          1
        ],
        "metallicFactor": 0,
        "roughnessFactor": 0.59999999999999998
      }
    },
    {
      "doubleSided": true,
      "emissiveFactor": [
        0,
        0,
        0
      ],
      "name": "Snake_rattle",
      "pbrMetallicRoughness": {
        "baseColorFactor": [
          0.51733297109999998,
          0.37574675680000003,
          0.24954453109999999,
          1
        ],
        "metallicFactor": 0,
        "roughnessFactor": 0.59999999999999998
      }
    },
    {
      "doubleSided": true,
      "emissiveFactor": [
        0,
        0,
        0
      ],
      "name": "Snake_tooth",
      "pbrMetallicRoughness": {
        "baseColorFactor": [
          0.80000001190000003,
          0.80000001190000003,
          0.80000001190000003,
          1
        ],
        "metallicFactor": 0,
        "roughnessFactor": 0.59999999999999998
      }
    },
    {
      "doubleSided": true,
      "emissiveFactor": [
        0,
        0,
        0
      ],
      "name": "Snake_eye",
      "pbrMetallicRoughness": {
        "baseColorFactor": [
          0,
          0,
          0,
          1
        ],
        "metallicFactor": 0,
        "roughnessFactor": 0.59999999999999998
      }
    },
    {
      "doubleSided": true,
      "emissiveFactor": [
        0,
        0,
        0
      ],
      "name": "Snake_eye.001",
      "pbrMetallicRoughness": {
        "baseColorFactor": [
          0,
          0,
          0,
          1
        ],
        "metallicFactor": 0,
        "roughnessFactor": 0.59999999999999998
      }
    }
  ],
  "meshes": [
    {
      "name": "Circle_0",
      "primitives": [
        {
          "attributes": {
            "NORMAL": 1,
            "POSITION": 0
          },
          "indices": 2,
          "material": 0,
          "mode": 4
        }
      ]
    },
    {
      "name": "Circle_1",
      "primitives": [
        {
          "attributes": {
            "NORMAL": 4,
            "POSITION": 3
          },
          "indices": 5,
          "material": 1,
          "mode": 4
        }
      ]
    },
    {
      "name": "Circle_2",
      "primitives": [
        {
          "attributes": {
            "NORMAL": 7,
            "POSITION": 6
          },
          "indices": 8,
          "material": 2,
          "mode": 4
        }
      ]
    },
    {
      "name": "Cylinder_0",
      "primitives": [
        {
          "attributes": {
            "NORMAL": 10,
            "POSITION": 9
          },
          "indices": 11,
          "material": 3,
          "mode": 4
        }
      ]
    },
    {
      "name": "Icosphere_0",
      "primitives": [
        {
          "attributes": {
            "NORMAL": 13,
            "POSITION": 12
          },
          "indices": 14,
          "material": 4,
          "mode": 4
        }
      ]
    },
    {
      "name": "Icosphere.001_0",
      "primitives": [
        {
          "attributes": {
            "NORMAL": 16,
            "POSITION": 15
          },
          "indices": 17,
          "material": 5,
          "mode": 4
        }
      ]
    },
    {
      "name": "Cylinder.001_0",
      "primitives": [
        {
          "attributes": {
            "NORMAL": 19,
            "POSITION": 18
          },
          "indices": 20,
          "material": 3,
          "mode": 4
        }
      ]
    }
  ],
  "nodes": [
    {
      "children": [
        1
      ],
      "name": "RootNode (gltf orientation matrix)",
      "rotation": [
        -0.70710678118654746,
        -0,
        -0,
        0.70710678118654757
      ]
    },
    {
      "children": [
        2
      ],
      "name": "RootNode (model correction matrix)"
    },
    {
      "children": [
        3
      ],
      "name": "Root"
    },
    {
      "children": [
        4,
        5,
        6,
        7,
        9,
        11,
        13
      ],
      "matrix": [
        0,
        0,
        -0.28528000000000003,
        0,
        0,
        0.28528000000000003,
        0,
        0,
        0.28528000000000003,
        0,
        0,
        0,
        -12.390700000000001,
        0,
        0,
        1
      ],
      "name": "Circle"
    },
    {
      "mesh": 0,
      "name": "Circle_0"
    },
    {
      "mesh": 1,
      "name": "Circle_1"
    },
    {
      "mesh": 2,
      "name": "Circle_2"
    },
    {
      "children": [
        8
      ],
      "matrix": [
        0,
        0,
        0.064590000000000022,
        0,
        0,
        0.064590000000000022,
        0,
        0,
        -0.099020000000000039,
        0,
        0,
        0,
        0.031150000000000008,
        -0.47021000000000002,
        -3.7730300000000003,
        1
      ],
      "name": "Cylinder"
    },
    {
      "mesh": 3,
      "name": "Cylinder_0"
    },
    {
      "children": [
        10
      ],
      "matrix": [
        0,
        0,
        0.12666999999999998,
        0,
        0,
        0.12666999999999998,
        0,
        0,
        -0.12666999999999998,
        0,
        0,
        0,
        -0.71110000000000007,
        -0.70107000000000008,
        -2.6834800000000003,
        1
      ],
      "name": "Icosphere"
    },
    {
      "mesh": 4,
      "name": "Icosphere_0"
    },
    {
      "children": [
        12
      ],
      "matrix": [
        0,
        0,
        0.12666999999999998,
        0,
        0,
        0.12666999999999998,
        0,
        0,
        -0.12666999999999998,
        0,
        0,
        0,
        -0.71110000000000007,
        0.70107000000000008,
        -2.6834800000000003,
        1
      ],
      "name": "Icosphere.001"
    },
    {
      "mesh": 5,
      "name": "Icosphere.001_0"
    },
    {
      "children": [
        14
      ],
      "matrix": [
        0,
        0,
        0.064590000000000022,
        0,
        0,
        0.064590000000000022,
        0,
        0,
        -0.099020000000000039,
        0,
        0,
        0,
        0.031150000000000008,
        0.46489000000000003,
        -3.7730300000000003,
        1
      ],
      "name": "Cylinder.001"
    },
    {
      "mesh": 6,
      "name": "Cylinder.001_0"
    }
  ],
  "scene": 0,
  "scenes": [
    {
      "name": "OSG_Scene",
      "nodes": [
        0
      ]
    }
  ]
}

