{
    "asset" : {
        "generator" : "Khronos glTF Blender I/O v1.0.5",
        "version" : "2.0"
    },
    "scene" : 0,
    "scenes" : [
        {
            "name" : "Scene",
            "nodes" : [
                0,
                1,
                2,
                3,
                4,
                5
            ]
        }
    ],
    "nodes" : [
        {
            "name" : "Light",
            "rotation" : [
                0.16907575726509094,
                0.7558803558349609,
                -0.27217137813568115,
                0.570947527885437
            ],
            "translation" : [
                4.076245307922363,
                5.903861999511719,
                -1.0054539442062378
            ]
        },
        {
            "name" : "Camera",
            "rotation" : [
                0.483536034822464,
                0.33687159419059753,
                -0.20870360732078552,
                0.7804827094078064
            ],
            "translation" : [
                7.358891487121582,
                4.958309173583984,
                6.925790786743164
            ]
        },
        {
            "mesh" : 0,
            "name" : "Sign",
            "rotation" : [
                0.5,
                0.5,
                -0.5,
                0.4999999701976776
            ],
            "scale" : [
                1.5447072982788086,
                1.5447072982788086,
                1.5447072982788086
            ],
            "translation" : [
                -0.03995323181152344,
                4.591383934020996,
                4.89943265914917
            ]
        },
        {
            "name" : "Text",
            "rotation" : [
                0.5,
                0.5,
                -0.5,
                0.4999999701976776
            ],
            "scale" : [
                0.7178493738174438,
                0.7178493738174438,
                0.7178493738174438
            ],
            "translation" : [
                -0.002086460590362549,
                4.721462726593018,
                4.89943265914917
            ]
        },
        {
            "mesh" : 1,
            "name" : "Man",
            "rotation" : [
                0.7071068286895752,
                0,
                0,
                0.7071067094802856
            ],
            "scale" : [
                1,
                1,
                2.4516823291778564
            ]
        },
        {
            "mesh" : 2,
            "name" : "SignText",
            "rotation" : [
                0.5,
                0.5,
                -0.5,
                0.4999999701976776
            ],
            "scale" : [
                0.7178493738174438,
                0.7178493738174438,
                0.7178493738174438
            ],
            "translation" : [
                -0.002086460590362549,
                4.721462726593018,
                4.89943265914917
            ]
        }
    ],
    "materials" : [
        {
            "doubleSided" : true,
            "name" : "Material",
            "pbrMetallicRoughness" : {
                "baseColorTexture" : {
                    "index" : 0,
                    "texCoord" : 0
                },
                "metallicFactor" : 0,
                "roughnessFactor" : 0.4000000059604645
            }
        },
        {
            "doubleSided" : true,
            "name" : "Material.002",
            "pbrMetallicRoughness" : {
                "baseColorTexture" : {
                    "index" : 1,
                    "texCoord" : 0
                },
                "metallicFactor" : 0,
                "roughnessFactor" : 0.4000000059604645
            }
        },
        {
            "doubleSided" : true,
            "name" : "Material.004",
            "pbrMetallicRoughness" : {
                "baseColorFactor" : [
                    0.0004412060370668769,
                    0,
                    0.005604672711342573,
                    1
                ],
                "metallicFactor" : 0,
                "roughnessFactor" : 0.5
            }
        }
    ],
    "meshes" : [
        {
            "name" : "Circle",
            "primitives" : [
                {
                    "attributes" : {
                        "POSITION" : 0,
                        "NORMAL" : 1,
                        "TEXCOORD_0" : 2
                    },
                    "indices" : 3,
                    "material" : 0
                }
            ]
        },
        {
            "name" : "Cube.001",
            "primitives" : [
                {
                    "attributes" : {
                        "POSITION" : 4,
                        "NORMAL" : 5,
                        "TEXCOORD_0" : 6
                    },
                    "indices" : 7,
                    "material" : 1
                }
            ]
        },
        {
            "name" : "Text",
            "primitives" : [
                {
                    "attributes" : {
                        "POSITION" : 8,
                        "NORMAL" : 9
                    },
                    "indices" : 10,
                    "material" : 2
                }
            ]
        }
    ],
    "textures" : [
        {
            "source" : 0
        },
        {
            "source" : 1
        }
    ],
    "images" : [
        {
            "mimeType" : "image/png",
            "name" : "SignBase",
            "uri" : "SignBase.png"
        },
        {
            "mimeType" : "image/png",
            "name" : "Material Base Color",
            "uri" : "Material Base Color.png"
        }
    ],
    "accessors" : [
        {
            "bufferView" : 0,
            "componentType" : 5126,
            "count" : 372,
            "max" : [
                1.6453707218170166,
                0.0554545596241951,
                1.003478765487671
            ],
            "min" : [
                -1.616875410079956,
                0,
                -1.00347900390625
            ],
            "type" : "VEC3"
        },
        {
            "bufferView" : 1,
            "componentType" : 5126,
            "count" : 372,
            "type" : "VEC3"
        },
        {
            "bufferView" : 2,
            "componentType" : 5126,
            "count" : 372,
            "type" : "VEC2"
        },
        {
            "bufferView" : 3,
            "componentType" : 5123,
            "count" : 702,
            "type" : "SCALAR"
        },
        {
            "bufferView" : 4,
            "componentType" : 5126,
            "count" : 1449,
            "max" : [
                1.42659330368042,
                2.1850225925445557,
                1.229429006576538
            ],
            "min" : [
                -1.42659330368042,
                -2.1850225925445557,
                -2.1333706378936768
            ],
            "type" : "VEC3"
        },
        {
            "bufferView" : 5,
            "componentType" : 5126,
            "count" : 1449,
            "type" : "VEC3"
        },
        {
            "bufferView" : 6,
            "componentType" : 5126,
            "count" : 1449,
            "type" : "VEC2"
        },
        {
            "bufferView" : 7,
            "componentType" : 5123,
            "count" : 2550,
            "type" : "SCALAR"
        },
        {
            "bufferView" : 8,
            "componentType" : 5126,
            "count" : 21034,
            "max" : [
                2.47521710395813,
                0.04999999701976776,
                1.3620036840438843
            ],
            "min" : [
                -2.429960012435913,
                -0.04999999701976776,
                -0.9270600080490112
            ],
            "type" : "VEC3"
        },
        {
            "bufferView" : 9,
            "componentType" : 5126,
            "count" : 21034,
            "type" : "VEC3"
        },
        {
            "bufferView" : 10,
            "componentType" : 5123,
            "count" : 91128,
            "type" : "SCALAR"
        }
    ],
    "bufferViews" : [
        {
            "buffer" : 0,
            "byteLength" : 4464,
            "byteOffset" : 0
        },
        {
            "buffer" : 0,
            "byteLength" : 4464,
            "byteOffset" : 4464
        },
        {
            "buffer" : 0,
            "byteLength" : 2976,
            "byteOffset" : 8928
        },
        {
            "buffer" : 0,
            "byteLength" : 1404,
            "byteOffset" : 11904
        },
        {
            "buffer" : 0,
            "byteLength" : 17388,
            "byteOffset" : 13308
        },
        {
            "buffer" : 0,
            "byteLength" : 17388,
            "byteOffset" : 30696
        },
        {
            "buffer" : 0,
            "byteLength" : 11592,
            "byteOffset" : 48084
        },
        {
            "buffer" : 0,
            "byteLength" : 5100,
            "byteOffset" : 59676
        },
        {
            "buffer" : 0,
            "byteLength" : 252408,
            "byteOffset" : 64776
        },
        {
            "buffer" : 0,
            "byteLength" : 252408,
            "byteOffset" : 317184
        },
        {
            "buffer" : 0,
            "byteLength" : 182256,
            "byteOffset" : 569592
        }
    ],
    "buffers" : [
        {
            "byteLength" : 751848,
            "uri" : "scene.bin"
        }
    ]
}
